# xmcd
#
# Track frame offsets:
#	150
#	14247
#	28750
#	39368
#	52470
#	62950
#	77629
#	91091
#	103466
#	116059
#	125441
#	134082
#	144121
#	154520
#	166630
#	177578
#	187482
#	199957
#	213144
#	226395
#	237952
#	248313
#	260878
#	272168
#	284070
#	292999
#
# Disc length: 4053 seconds
# Revision: 0
# Processed by: cddbd v1.5.2PL0 Copyright (c) Steve Scherf et al.
# Submitted via: dBpowerAMP V12.0
#
DISCID=940fd31a
DTITLE=Slim Dusty - Odds and Sods CD1 1957-1961
DYEAR=1900
DGENRE=Country
TTITLE0=Where the Western Clouds at Sunset turn to Gold
TTITLE1=Tiny Blue Shoe
TTITLE2=You Stepped Out of Line
TTITLE3=That's A Sad Affair
TTITLE4=Silver Spurs
TTITLE5=Hello and Goodbye
TTITLE6=My Journey Home
TTITLE7=Sunny Southern Sue
TTITLE8=If Those Lips Could Only Speak
TTITLE9=Aussie Dog House Blues
TTITLE10=No Good Baby
TTITLE11=Wedding Bell Blues
TTITLE12=Fair Dinkum
TTITLE13=There's A Rainbow Round My Memories
TTITLE14=I Don't Want No Woman Around
TTITLE15=If You Walk Out That Gate
TTITLE16=My Home On The Sunburnt Plains
TTITLE17=Old Home Week
TTITLE18=The Boys Who Never Returned
TTITLE19=Big Moon
TTITLE20=I'll Take Mine Country Style
TTITLE21=Mothers Wedding Band
TTITLE22=Movin Away
TTITLE23=Showers Of Blessing
TTITLE24=You've Got The Cleanest Mind
TTITLE25=My Pal Alcohol
EXTD=
EXTT0=
EXTT1=
EXTT2=
EXTT3=
EXTT4=
EXTT5=
EXTT6=
EXTT7=
EXTT8=
EXTT9=
EXTT10=
EXTT11=
EXTT12=
EXTT13=
EXTT14=
EXTT15=
EXTT16=
EXTT17=
EXTT18=
EXTT19=
EXTT20=
EXTT21=
EXTT22=
EXTT23=
EXTT24=
EXTT25=
PLAYORDER=
